<svg xmlns="http://www.w3.org/2000/svg" width="128" height="37" viewBox="-3 -3 134 43" fill="none" transform="matrix(1, 0, 0, 1, 0, 0)"><g id="deeditor_bgCarrier" stroke-width="0">
    <rect id="dee_c_e" x="-3" y="-3" width="134" height="43" rx="0" fill="#0aa69b" strokewidth="0"/>
  </g>
<g clip-path="url(#clip0_2194_1842)">
<path d="M118.665 28.8822V19.5469H117.329V30.2181H128V28.8822H118.665Z" fill="#ffffff"/>
<path d="M114.482 19.5469H103.814V30.2149H114.482V19.5469ZM113.149 20.8828V28.8854H105.147V20.8828H113.149Z" fill="#ffffff"/>
<path d="M92.7728 19.5469H101.327V20.8796H93.3273L91.9914 22.2155V24.2162H101.327V28.104L99.2093 30.2149H90.6587V28.8822H98.6581L99.9908 27.5495V25.5489H90.6587V21.661L92.7728 19.5469Z" fill="#ffffff"/>
<path d="M86.8358 27.5495L85.4999 28.8854H80.1691L78.8332 27.5495V19.5469H77.5005V28.104L79.6146 30.2149V30.2181H86.0576L86.0544 30.2149H86.0576L88.1685 28.104V19.5469H86.8358V27.5495Z" fill="#ffffff"/>
<path d="M72.8958 19.5423H63.0093V30.2103H72.8958L75.0132 28.0962V21.6532L72.8958 19.5391V19.5423ZM73.6773 27.5449L72.3414 28.8809H64.342V20.8782H72.3414L73.6773 22.2142V27.5482V27.5449Z" fill="#ffffff"/>
<path d="M53.8427 19.5469L57.4484 28.8822H58.8298V19.5469H60.1625V30.2181H56.6411L52.9251 20.8828H51.4951V30.2181H50.1592V19.5469H53.8427Z" fill="#ffffff"/>
<path d="M47.4904 19.5469H46.1577V30.2149H47.4904V19.5469Z" fill="#ffffff"/>
<path d="M65.6747 7.60613L64.342 8.94206V14.2728L65.6779 15.6088H72.3446L73.6773 14.2728V12.9401H69.676V11.6074H75.0132V14.8305H75.01L72.8991 16.9415H65.1267L63.0093 14.8273L63.0125 8.38434L65.1267 6.27344H75.0132V7.60613" fill="#ffffff"/>
<path d="M60.1623 6.27344H55.707L53.9042 10.9395H52.4742L50.6714 6.27344H46.1577V16.9415H47.4936V7.60613H49.7505L51.6117 12.2754H54.7667L56.6247 7.60613H58.8296V16.9415H60.1623V6.27344Z" fill="#ffffff"/>
<path d="M13.6055 15.9609C13.6541 15.9609 13.7 15.9803 13.7324 16.0127L20.4668 22.748C20.4992 22.7805 20.5185 22.8255 20.5186 22.874V36.3018C20.5184 36.3988 20.4411 36.4794 20.3408 36.4795H16.1387C16.0415 36.4795 15.9601 36.4022 15.96 36.3018V25.1533C15.9599 25.1049 15.9404 25.0597 15.9082 25.0273L11.4531 20.5723C11.4207 20.5398 11.3748 20.5195 11.3262 20.5195H0.178711C0.0814865 20.5195 8.70935e-05 20.4422 0 20.3418V16.1396C0 16.0424 0.0781916 15.9609 0.178711 15.9609H13.6055Z" fill="#94edd3"/>
<path d="M10.1357 22.9346C10.2054 22.865 10.3181 22.865 10.3877 22.9346L13.5566 26.1035C13.6259 26.1732 13.6261 26.2859 13.5566 26.3555L6.39844 33.5137C6.32879 33.5833 6.21515 33.5833 6.14551 33.5137L2.97754 30.3447C2.90789 30.2751 2.90789 30.1624 2.97754 30.0928L10.1357 22.9346Z" fill="#94edd3"/>
<path d="M26.1484 22.8047C26.1969 22.8048 26.2421 22.8242 26.2744 22.8564L33.5059 30.0908C33.5768 30.1589 33.5769 30.2725 33.5059 30.3438L30.3408 33.5088C30.2728 33.5799 30.1592 33.5798 30.0879 33.5088L22.8564 26.2773C22.8242 26.245 22.8048 26.1997 22.8047 26.1514V22.9834C22.8047 22.8861 22.8829 22.8047 22.9834 22.8047H26.1484Z" fill="#94edd3"/>
<path d="M20.3438 0C20.441 0 20.5225 0.0781916 20.5225 0.178711V11.3262C20.5225 11.3748 20.5418 11.4207 20.5742 11.4531L25.0293 15.9082C25.0617 15.9406 25.1076 15.96 25.1562 15.96H36.3037C36.401 15.96 36.4824 16.0382 36.4824 16.1387V20.3408C36.4823 20.438 36.4041 20.5186 36.3037 20.5186H22.877C22.8283 20.5186 22.7824 20.4992 22.75 20.4668L16.0156 13.7324C15.9832 13.7 15.9639 13.6541 15.9639 13.6055V0.178711C15.9639 0.0814722 16.0411 6.33129e-05 16.1416 0H20.3438Z" fill="#94edd3"/>
<path d="M6.14453 2.97559C6.21262 2.90425 6.32612 2.90425 6.39746 2.97559L13.6279 10.2061C13.6604 10.2385 13.6797 10.2844 13.6797 10.333V13.501C13.6796 13.5981 13.6023 13.6786 13.502 13.6787H10.334C10.2853 13.6787 10.2395 13.6594 10.207 13.627L2.97656 6.39648C2.90523 6.32839 2.90523 6.21489 2.97656 6.14355L6.14453 2.97559Z" fill="#94edd3"/>
<path d="M30.0869 2.97363C30.1566 2.90407 30.2693 2.90402 30.3389 2.97363L33.5078 6.14258C33.5771 6.21222 33.5773 6.325 33.5078 6.39453L26.3496 13.5527C26.28 13.6224 26.1663 13.6224 26.0967 13.5527L22.9287 10.3838C22.8591 10.3141 22.8591 10.2015 22.9287 10.1318L30.0869 2.97363Z" fill="#94edd3"/>
</g>
<defs fill="#cc2727">
<clipPath id="clip0_2194_1842" fill="#cc2727">
<rect width="128" height="36.4853" fill="#ffffff"/>
</clipPath>
</defs>
</svg>